<?xml version="1.0" encoding="iso-8859-1"?>
<!-- Generator: Adobe Illustrator 19.0.0, SVG Export Plug-In . SVG Version: 6.00 Build 0)  -->
<svg version="1.1" id="Capa_1" xmlns="http://www.w3.org/2000/svg" xmlns:xlink="http://www.w3.org/1999/xlink" x="0px" y="0px"
	 viewBox="0 0 441.062 441.062" style="enable-background:new 0 0 441.062 441.062;" xml:space="preserve">
<path style="fill:#00ACEA;" d="M403.581,176.821c21.05,0,37.48,17.97,37.48,40.56c0.083,10.637-3.861,20.911-11.04,28.76
	c-6.777,7.457-16.364,11.739-26.44,11.81l-113.48-2.06l-102.3,82.92c-7.264,6.275-16.541,9.728-26.14,9.73h-29.43
	c-5.523,0.001-10.001-4.475-10.002-9.998c-0.001-2.412,0.87-4.742,2.452-6.562l77.61-84.82l-152.5-16.43
	c-7.907-1.101-14.593-6.409-17.46-13.86l-30.56-66.22c-4.442-9.624-0.241-21.026,9.383-25.468
	c7.905-3.649,17.276-1.519,22.827,5.188l28.65,34.64c3.81,6.932,11.08,11.254,18.99,11.29l117.59,0.19l91.36,0.15L403.581,176.821z"
	/>
<path style="fill:#00EFD1;" d="M290.571,176.211v0.43l-91.36-0.15v-0.27l-52.63-67.55c-3.397-4.355-2.62-10.639,1.735-14.035
	c1.758-1.371,3.925-2.116,6.155-2.115h20.05c9.323,0.002,18.353,3.26,25.53,9.21L290.571,176.211z"/>
<g>
</g>
<g>
</g>
<g>
</g>
<g>
</g>
<g>
</g>
<g>
</g>
<g>
</g>
<g>
</g>
<g>
</g>
<g>
</g>
<g>
</g>
<g>
</g>
<g>
</g>
<g>
</g>
<g>
</g>
</svg>
